<?xml version="1.0" encoding="UTF-8" standalone="no"?>
<!-- Created with Inkscape (http://www.inkscape.org/) -->

<svg
   xmlns:dc="http://purl.org/dc/elements/1.1/"
   xmlns:cc="http://creativecommons.org/ns#"
   xmlns:rdf="http://www.w3.org/1999/02/22-rdf-syntax-ns#"
   xmlns:svg="http://www.w3.org/2000/svg"
   xmlns="http://www.w3.org/2000/svg"
   xmlns:sodipodi="http://sodipodi.sourceforge.net/DTD/sodipodi-0.dtd"
   xmlns:inkscape="http://www.inkscape.org/namespaces/inkscape"
   width="1033.8534mm"
   height="803.97076mm"
   viewBox="0 0 1033.8534 803.97075"
   version="1.1"
   id="svg8"
   inkscape:version="0.92.4 (5da689c313, 2019-01-14)"
   sodipodi:docname="audio-hat-wizard.svg">
  <defs
     id="defs2" />
  <sodipodi:namedview
     id="base"
     pagecolor="#ffffff"
     bordercolor="#666666"
     borderopacity="1.0"
     inkscape:pageopacity="0.0"
     inkscape:pageshadow="2"
     inkscape:zoom="0.20011674"
     inkscape:cx="2561.0099"
     inkscape:cy="1227.4414"
     inkscape:document-units="mm"
     inkscape:current-layer="layer1"
     showgrid="false"
     inkscape:window-width="1920"
     inkscape:window-height="1001"
     inkscape:window-x="-9"
     inkscape:window-y="-9"
     inkscape:window-maximized="1"
     fit-margin-top="0"
     fit-margin-left="0"
     fit-margin-right="0"
     fit-margin-bottom="0" />
  <metadata
     id="metadata5">
    <rdf:RDF>
      <cc:Work
         rdf:about="">
        <dc:format>image/svg+xml</dc:format>
        <dc:type
           rdf:resource="http://purl.org/dc/dcmitype/StillImage" />
        <dc:title></dc:title>
      </cc:Work>
    </rdf:RDF>
  </metadata>
  <g
     inkscape:label="Layer 1"
     inkscape:groupmode="layer"
     id="layer1"
     transform="translate(442.06412,-896.64851)">
    <path
       style="fill:#000000;stroke-width:0.35277781"
       d="m 52.870526,1409.8097 c -4.88893,-12.4554 -8.99544,-22.9284 -9.12559,-23.2734 -0.22093,-0.5857 0.097,-0.6208 4.7924,-0.5292 l 5.02903,0.098 4.0942,10.4799 c 2.25181,5.7639 4.19566,10.3676 4.31968,10.2305 0.12402,-0.1371 2.03007,-4.8837 4.23569,-10.5481 2.20562,-5.6643 4.10918,-10.1887 4.23014,-10.0541 0.12097,0.1345 2.02314,4.8829 4.22705,10.552 2.20391,5.669 4.10828,10.1934 4.23193,10.0541 0.12365,-0.1392 2.0262,-4.8966 4.2279,-10.5719 l 4.00309,-10.3188 h 5.05962 c 2.78279,0 4.99015,0.1191 4.90524,0.2646 -0.0849,0.1455 -4.16362,10.504 -9.06381,23.0187 -4.90018,12.5148 -9.01033,22.8684 -9.13366,23.008 -0.12332,0.1395 -1.63279,-3.5117 -3.35438,-8.1139 -5.20444,-13.9127 -5.22482,-13.9625 -5.50334,-13.4407 -0.14296,0.2678 -1.97072,5.1701 -4.0617,10.8939 -2.09097,5.7238 -3.89689,10.517 -4.01315,10.6517 -0.11626,0.1346 -4.21142,-9.9461 -9.10034,-22.4014 z m -145.414424,21.422 c -1.04685,-0.2815 -2.71373,-0.9436 -3.704169,-1.4714 -2.34565,-1.2498 -6.128483,-5.0528 -7.403023,-7.4425 -1.91442,-3.5893 -1.97377,-4.2181 -1.97831,-20.9549 l -0.004,-15.434 h 4.40972 4.409734 v 14.047 c 0,11.5641 0.0951,14.3675 0.53821,15.8595 2.109699,7.1041 10.866479,9.1793 15.676358,3.715 2.448542,-2.7817 2.482652,-3.0458 2.482652,-19.2205 v -14.401 h 4.58611 4.58611 l -0.003,14.3756 c -0.0011,8.3537 -0.158051,15.3334 -0.373591,16.662 -1.045718,6.4454 -6.40487,12.322 -13.005139,14.2607 -2.390352,0.7021 -7.61515,0.7044 -10.217812,0 z m 106.916124,0.1861 c -4.6569918,-0.8311 -10.2042418,-4.1809 -13.2858318,-8.0228 -10.07769,-12.5642 -4.56418,-31.5121 10.6561718,-36.6214 3.5968,-1.2075 8.39543,-1.4892 12.0933,-0.71 6.66673,1.4046 12.874,6.1941 15.82779,12.2125 1.96473,4.0031 2.63698,7.3068 2.40485,11.818 -0.31527,6.127 -2.33538,10.6934 -6.62183,14.9684 -4.43826,4.4264 -9.03121,6.3996 -15.31498,6.5795 -2.1343,0.061 -4.72606,-0.04 -5.75947,-0.2242 z m 10.59827,-10.1356 c 2.7897,-1.3733 5.59189,-4.229 6.91015,-7.042 0.83419,-1.78 0.95105,-2.4629 0.95105,-5.5572 0,-3.0943 -0.11686,-3.7771 -0.95105,-5.5572 -1.32606,-2.8296 -4.11895,-5.6679 -6.94747,-7.0604 -2.14458,-1.0557 -2.58055,-1.1407 -5.85239,-1.1407 -3.10234,0 -3.78368,0.1164 -5.5646,0.951 -2.82964,1.3261 -5.6679318,4.119 -7.0604018,6.9475 -1.05577,2.1446 -1.14075,2.5806 -1.14075,5.8524 0,3.132 0.11259,3.7766 0.98723,5.6519 1.12381,2.4094 3.9834618,5.5255 6.0683218,6.6125 2.57408,1.342 4.11921,1.6749 7.27669,1.5678 2.58404,-0.088 3.38744,-0.2726 5.32322,-1.2256 z m -174.348536,9.9382 c 0,-0.3233 20.15339,-45.4239 20.43795,-45.7374 0.17285,-0.1904 19.54257,42.3572 20.77826,45.6416 0.0648,0.1722 -2.08579,0.3126 -4.78956,0.3126 h -4.90715 l -1.62391,-3.5278 -1.62392,-3.5278 h -7.61463 -7.61463 l -0.61217,1.0075 c -0.3367,0.5542 -1.08843,2.1411 -1.67051,3.5265 l -1.05834,2.5189 h -4.85069 c -2.66788,7e-4 -4.8507,-0.096 -4.8507,-0.2155 z m 24.53286,-15.2588 c -0.58385,-1.8396 -3.65856,-8.5583 -3.92107,-8.5681 -0.31396,-0.012 -3.97459,8.0073 -4.01075,8.7861 -0.0153,0.3285 1.01993,0.4409 4.06024,0.4409 3.82391,0 4.06756,-0.042 3.87158,-0.6589 z m 64.014373,-7.2465 v -22.7862 l 7.49653,0.01 c 8.8192,0.01 11.083581,0.3757 15.434029,2.5118 2.305201,1.1319 3.61746,2.0919 5.674813,4.1515 4.430088,4.4349 6.084469,8.7885 6.112319,16.0847 0.0277,7.2456 -1.637321,11.6283 -6.106271,16.0736 -2.964969,2.9493 -4.901819,4.1627 -8.855861,5.5482 -2.520389,0.8831 -3.05145,0.9334 -11.200699,1.0617 l -8.55486,0.1348 v -22.7863 z m 16.784061,13.0324 c 5.498938,-1.6331 8.968719,-6.7038 8.968719,-13.107 0,-5.7068 -2.83594,-10.4205 -7.510021,-12.4827 -1.886469,-0.8323 -5.640848,-1.4902 -7.67619,-1.3451 l -1.570738,0.112 -0.0925,13.4044 c -0.0509,7.3725 -0.007,13.6265 0.0968,13.8979 0.23772,0.6195 5.089581,0.3206 7.78391,-0.4795 z m 24.490939,-13.0645 v -22.7541 h 4.58611 4.58611 v 22.7541 22.7542 h -4.58611 -4.58611 z m 123.119457,0 v -22.7541 h 4.58611 4.58611 v 22.7541 22.7542 h -4.58611 -4.58611 z m 15.52222,22.5838 c 0,-0.094 3.8691,-8.2297 8.59803,-18.0799 l 8.59803,-17.9094 -8.59803,-0.094 -8.59803,-0.094 v -4.58 -4.5799 h 15.875 c 8.73125,0 15.875,0.1202 15.875,0.2672 0,0.147 -3.86025,8.2829 -8.57833,18.0799 l -8.57832,17.8126 8.75472,0.094 8.75472,0.094 v 4.58 4.5801 h -16.0514 c -8.82827,0 -16.05139,-0.077 -16.05139,-0.1704 z m 36.7444,-0.1554 c 0.78849,-2.2539 20.63705,-46.1327 20.78765,-45.9547 0.1696,0.2004 5.89571,12.9656 19.05889,42.4881 l 1.6909,3.7924 h -5.03798 -5.03796 l -1.41904,-3.2632 -1.41904,-3.2632 -7.92983,-0.095 -7.9298,-0.095 -1.397,3.2697 -1.397,3.2696 -5.04534,0.098 c -3.18309,0.062 -5.00073,-0.03 -4.92445,-0.2475 z m 24.63893,-14.7828 c 0,-0.1606 -0.6491,-1.7878 -1.44246,-3.616 -0.79338,-1.8282 -1.67568,-3.8796 -1.96072,-4.5587 l -0.51826,-1.2348 -2.04007,4.5861 c -1.12205,2.5224 -1.9766,4.7052 -1.89902,4.8507 0.1937,0.3633 7.86053,0.3366 7.86053,-0.027 z m 23.28333,-7.6456 v -22.7541 h 8.74535 c 9.54633,0 11.36142,0.2523 14.67358,2.04 2.32609,1.2556 5.25521,4.2043 6.47484,6.5183 0.92945,1.7635 0.9743,2.0759 0.9743,6.7875 0,4.8956 -0.0101,4.9583 -1.15687,7.1542 -1.46031,2.7963 -3.30795,4.8518 -5.24703,5.8373 l -1.51222,0.7685 5.25938,8.2013 5.25939,8.2012 -5.71106,-0.02 -5.71103,-0.02 -6.35,-9.851 -6.35,-9.8509 -0.0937,9.8705 -0.0937,9.8705 h -4.58066 -4.58059 v -22.7542 z m 18.1329,-1.7264 c 2.43216,-1.0163 4.12002,-4.5456 3.41895,-7.1491 -0.94747,-3.5187 -3.08345,-4.6874 -8.58726,-4.6987 l -3.79236,-0.01 v 6.1736 6.1737 h 3.89189 c 2.52974,0 4.30382,-0.1722 5.06878,-0.4918 z m 21.731,1.722 v -22.8129 l 8.73125,0.1561 c 9.47835,0.1695 9.9581,0.2507 14.45252,2.445 3.27983,1.6013 7.69297,5.9611 9.23131,9.1197 1.56097,3.2051 2.14226,5.5805 2.37022,9.6854 0.51424,9.2599 -3.22654,16.7797 -10.49041,21.0878 -4.34502,2.577 -5.74112,2.8459 -15.56364,2.9972 l -8.73125,0.1346 z m 18.27088,12.3671 c 2.78453,-1.2632 5.35197,-3.9693 6.45875,-6.8076 0.63103,-1.6182 0.79057,-2.7392 0.79057,-5.5551 0,-4.4133 -0.8128,-6.7417 -3.30547,-9.4691 -2.51235,-2.7488 -5.14066,-3.8567 -9.60292,-4.0477 l -3.43958,-0.1472 v 13.664 13.664 l 3.43958,-0.1472 c 2.82898,-0.121 3.83361,-0.3259 5.65907,-1.1541 z M 14.663646,1359.9738 c -1.45521,-0.2704 -3.12209,-0.6247 -3.70417,-0.7874 l -1.0583318,-0.2958 -0.09,-33.0475 c -0.0793,-29.1213 -0.0274,-33.0476 0.4370418,-33.0476 0.28987,0 1.67975,0.3065 3.08861,0.6811 1.40887,0.3745 4.10939,1.0291 6.00116,1.4546 l 3.43959,0.7735 v 32.1979 c 0,29.0349 -0.0548,32.219 -0.55802,32.4121 -0.92369,0.3545 -4.74094,0.1823 -7.55587,-0.3409 z m 91.604634,0.3199 c -0.12935,-0.1294 -0.23519,-14.4062 -0.23519,-31.7263 0,-29.6903 0.0353,-31.5009 0.61737,-31.664 0.33954,-0.095 2.20486,-0.5191 4.14513,-0.942 1.94028,-0.423 4.63585,-1.0702 5.99015,-1.4383 1.35429,-0.3681 2.50523,-0.6693 2.55762,-0.6693 0.0524,0 0.0953,14.5989 0.0953,32.442 v 32.442 l -1.49931,0.4075 c -4.14695,1.127 -11.01646,1.803 -11.67106,1.1484 z m -68.703474,-4.4979 c -0.0808,-0.081 -0.10554,-13.6539 -0.0549,-30.1625 l 0.0921,-30.0156 h 2.46552 2.46551 v 30.1625 30.1625 h -2.41064 c -1.32586,0 -2.4768,-0.066 -2.55764,-0.1469 z m -37.80516181,-5.312 c -2.80801999,-2.3162 -5.37057099,-5.3262 -7.28896099,-8.5618 -5.9709692,-10.0707 -5.6079102,-23.3096 0.908931,-33.1442 1.6921,-2.5536 5.17108,-6.2672 7.30919999,-7.8021 l 1.62760001,-1.1685 v 26.3039 c 0,14.4671 -0.0485,26.3039 -0.10774,26.3039 -0.0593,0 -1.16132,-0.8691 -2.44903001,-1.9312 z M 126.84697,1326.133 v -25.954 l 0.7207,0.3857 c 1.49407,0.7996 5.61403,5.0362 7.37552,7.5843 3.5791,5.1773 5.23915,10.0826 5.54895,16.3965 0.3483,7.0985 -1.26958,13.0306 -5.16745,18.9473 -1.89801,2.881 -6.1347,7.3403 -7.84217,8.2541 -0.60952,0.3262 -0.63555,-0.7221 -0.63555,-25.6139 z m -97.719434,-0.5292 v -19.05 h 2.64583 2.64583 v 19.05 19.0501 h -2.64583 -2.64583 z m 16.58055,0 v -19.05 h 2.64584 2.64583 v 19.05 19.0501 h -2.64583 -2.64584 z m 8.46667,-0.016 v -10.9522 l 2.38125,0.1043 2.38125,0.1043 0.0933,10.848 0.0933,10.8479 h -2.47454 -2.47454 z m 24.77754,0.1044 0.0933,-10.848 h 2.46945 2.46944 l 0.0933,10.848 0.0933,10.8479 h -2.65603 -2.65603 z m -16.58208,0 0.0948,-8.0257 2.55764,-0.1037 2.55764,-0.1036 v 8.1293 8.1294 h -2.65246 -2.65246 z m 24.96565,-0.1037 v -6.7182 l 2.55764,0.1036 2.55764,0.1037 0.096,6.6146 0.096,6.6145 h -2.65362 -2.65362 z m -16.58055,0 v -5.3071 l 2.55763,0.1036 2.55764,0.1037 0.0976,5.2035 0.0976,5.2034 h -2.65527 -2.65526 z m 24.94407,2.617 c -0.13729,-0.1373 -0.24963,-1.3345 -0.24963,-2.6603 v -2.4107 h 2.66129 2.661294 l -0.10365,2.5577 -0.10365,2.5576 -2.308014,0.1026 c -1.2694,0.056 -2.42034,-0.01 -2.55764,-0.1469 z m -36.40935,-38.6136 c -32.69463,-1.7101 -59.60947181,-8.1521 -79.898652,-19.1236 -6.315921,-3.4154 -16.13123,-10.2414 -16.2125,-11.2749 -0.0114,-0.1455 1.844509,-0.2647 4.124339,-0.2648 15.0603,-10e-4 29.8696612,-3.9004 48.379783,-12.7385 l 4.37075,-2.0869 3.72832,1.2608 c 4.24424,1.4352 9.77143,2.974 14.57899,4.0589 3.87148,0.8737 12.99147,1.3902 12.99147,0.7359 0,-0.2212 -0.21468,-0.4022 -0.47706,-0.4022 -0.83623,0 -8.02004,-3.1426 -12.34597,-5.4008 -4.62572,-2.4148 -10.25784,-6.4839 -13.37197,-9.6611 l -2.02972,-2.0708 1.57583,-4.3982 c 0.86671,-2.419 3.33288,-9.3989 5.48038,-15.5107 2.1475,-6.1119 4.48327,-12.7597 5.1906,-14.7728 1.47573,-4.2001 0.96824,-3.7429 9.45152,-8.5153 2.52236,-1.419 4.82423,-2.8026 5.11528,-3.0747 0.46186,-0.4318 0.41699,-0.4706 -0.35278,-0.3048 -4.66458,1.005 -10.23227,1.6476 -12.47553,1.44 -7.10105,-0.6573 -18.34607,2.0409 -35.8410618,8.5998 -2.6117,0.9791 -4.82349,1.7053 -4.9151,1.6137 -0.25949,-0.2595 4.94553,-7.7547 8.21479,-11.8292 4.72758,-5.892 9.7571918,-10.4021 19.0877318,-17.1162 2.17226,-1.5631 30.89401,-17.6829 33.42596,-18.7601 1.90114,-0.8087 6.58449,-1.8388 8.36052,-1.8388 2.13239,0 4.77112,1.1988 6.09068,2.767 1.37964,1.6396 6.44794,10.2506 8.70539,14.7904 2.69466,5.419 3.73135,8.0915 4.96973,12.8117 1.90124,7.2466 1.92531,7.7547 0.93475,19.7254 -0.48969,5.9178 -0.99551,12.1885 -1.12403,13.9347 l -0.23368,3.175 3.97085,-5.9281 c 2.18397,-3.2604 4.09907,-5.7999 4.25576,-5.6432 0.1567,0.1567 1.62286,3.2286 3.25813,6.8264 1.63528,3.5979 3.67536,8.0423 4.533534,9.8766 0.85816,1.8342 3.69477,8.074 6.30357,13.8661 l 4.74329,10.5311 2.11666,1.0955 c 13.69211,7.0869 27.38814,11.0681 45.15557,13.1262 2.71637,0.3147 5.41512,0.6862 5.99721,0.8256 l 1.05833,0.2535 -2.11667,1.6755 c -24.83641,19.6602 -63.47886,29.8859 -104.774994,27.7259 z"
       id="path1000-8"
       inkscape:connector-curvature="0" />
  </g>
</svg>
