<?xml version="1.0" encoding="UTF-8"?><svg xmlns="http://www.w3.org/2000/svg" height="306.7" viewBox="0 0 369.07 306.7" width="369.07"><defs><linearGradient gradientUnits="userSpaceOnUse" id="a" x1="51.35" x2="281.92" y1="262.28" y2="109.04"><stop offset="0" stop-color="#e900ff"/><stop offset="1" stop-color="#813fd3"/></linearGradient></defs><g data-name="Layer 5"><path d="M323.66,223.33c-8.52-29.28-21-57.3-27.62-69.5-10.55-19.33-17.16-19.21-26.46-21.85a261.58,261.58,0,0,0-43.07-8c-3.73-.35-3.63-1.73-3.62-2.49,0-1.59,3.28-2.8,3.28-2.8s21.09-8.35,31.64-18.46,3.51-24.61,3.51-24.61-9.41-22.82-34-44.77C214,19,201.49,14.49,192.5,12.86a35.91,35.91,0,0,0-7.94-.83h-.05a35.91,35.91,0,0,0-7.94.83c-9,1.63-21.53,6.15-34.8,18-24.62,22-34,44.77-34,44.77s-7,14.5,3.52,24.61,31.64,18.46,31.64,18.46,3.25,1.21,3.27,2.8c0,.76.12,2.14-3.61,2.49a262,262,0,0,0-43.08,8c-9.29,2.64-15.91,2.52-26.45,21.85-6.66,12.2-19.1,40.22-27.62,69.5-15.32,52.65,90,71.34,115.94,71.34,7.92,0,19.64.77,17.14-22.19-4.11-37.77-19.54-63.42-37.07-83.88-7.13-8.32-13.28-12-13.75-15.49-1.12-8.3,9.65-17.28,14.93-20.74a76.7,76.7,0,0,1,41.9-12.48h.06a76.74,76.74,0,0,1,41.91,12.48c5.27,3.46,16.05,12.44,14.92,20.74-.47,3.45-6.61,7.17-13.74,15.49-17.53,20.46-33,46.11-37.07,83.88-2.51,23,9.22,22.19,17.13,22.19C233.66,294.67,339,276,323.66,223.33ZM182.58,116.13c-5.82,0-30.71-12.24-30.71-32.27,0-23.38,30.71-8.18,30.71-8.18s30.72-15.2,30.72,8.18C213.3,104.64,188.41,116.13,182.58,116.13Z" fill="url(#a)"/></g></svg>